<svg width="95" height="26" viewBox="0 0 95 26" fill="none" xmlns="http://www.w3.org/2000/svg">
  <path d="M10.8 20.62c-4.34 0-7.69-3.41-7.69-7.76 0-4.3 3.35-7.76 7.69-7.76 4.34 0 7.7 3.46 7.7 7.76 0 4.35-3.36 7.76-7.7 7.76z" fill="#1A1A1A"/>
  <path d="M68.09 6.21h2.36v10.35h-2.36V6.21zm14.8 0v10.35h-2.11v-1.3a4.08 4.08 0 01-3.16 1.5c-2.8 0-5.03-2.19-5.03-5.38 0-3.19 2.23-5.37 5.03-5.37a4.07 4.07 0 013.15 1.5V6.2h2.11zm-2.13 5.17c0-2.11-1.39-3.45-3.24-3.45-1.94 0-3.33 1.38-3.33 3.45 0 2.09 1.39 3.47 3.33 3.47 1.9 0 3.24-1.33 3.24-3.47zm-20.23 5.18v-7.73h-1.51V6.2h1.51V3.45h2.33V6.2h2.32v2.63H62.8v6.97c0 .71.37 1.02 1 1.02.44 0 .9-.13 1.28-.31v2.28c-.56.3-1.2.46-2.26.46-1.8-.01-2.29-1.27-2.29-2.7zm-12.62 0v-7.73h-1.51V6.2h1.51V3.45h2.33V6.2h2.32v2.63h-2.31v6.97c0 .71.37 1.02.99 1.02.44 0 .9-.13 1.28-.31v2.28c-.56.3-1.2.46-2.26.46-1.8-.01-2.29-1.27-2.29-2.7zm-1.56.03a3.52 3.52 0 01-2.61 1.18c-1.8 0-3.45-1.15-3.45-3.19 0-2.11 1.65-3.04 3.45-3.04.98 0 1.98.42 2.61 1.12v-1.74c0-1.05-.86-1.9-2.36-1.9-1.06 0-2.04.46-2.88 1.18l-1-1.88a7.15 7.15 0 014.26-1.5c2.93 0 4.4 1.75 4.4 3.98v6.07h-2.42v-1.28zm0-2.05c-.47-.6-1.23-.9-2.03-.9-1.03 0-1.86.6-1.86 1.57 0 .96.83 1.56 1.86 1.56.8 0 1.56-.3 2.03-.9v-1.33zm-10.95-5.12c-.99 0-1.84.4-2.34 1.08V6.2h-2.33v10.35h2.33v-5.62c0-1.65 1.36-2.04 2.11-2.04.95 0 1.65.51 1.65 1.75v5.91h2.33v-6.25c0-2.54-1.5-3.98-3.75-3.98zm-13.16 8.32V4.33h7.73v2.44h-5.27v2.41h4.78v2.44h-4.78v2.7h5.27v2.43h-7.73z" fill="#1A1A1A"/>
</svg> 