<svg width="45" height="46" viewBox="0 0 45 46" fill="none" xmlns="http://www.w3.org/2000/svg">
  <circle cx="22.5" cy="23" r="22.5" fill="#E5E7EB" opacity="0.5"/>
  <path d="M33.25 17.2372C32.7271 16.6113 32.0978 16.1041 31.3896 15.7439C30.6814 15.3837 29.9094 15.1787 29.125 15.1414C28.2044 15.1033 27.2939 15.3057 26.4821 15.7291C25.6702 16.1524 24.9843 16.783 24.5 17.5596C24.2613 17.9134 23.9057 18.1768 23.5 18.3051C23.0943 18.1768 22.7387 17.9134 22.5 17.5596C22.0157 16.783 21.3298 16.1524 20.5179 15.7291C19.7061 15.3057 18.7956 15.1033 17.875 15.1414C17.0906 15.1787 16.3186 15.3837 15.6104 15.7439C14.9022 16.1041 14.2729 16.6113 13.75 17.2372C12.9857 18.1844 12.5697 19.3732 12.5697 20.5988C12.5697 21.8243 12.9857 23.0132 13.75 23.9604L22.2625 34.4551C22.4908 34.7348 22.7872 34.9548 23.125 35.0959C23.473 34.9689 23.7805 34.7489 24.0125 34.4551L32.525 23.9604C33.2893 23.0132 33.7054 21.8243 33.7054 20.5988C33.7054 19.3732 33.2893 18.1844 32.525 17.2372H33.25Z" stroke="#4F46E5" stroke-width="2" stroke-linecap="round" stroke-linejoin="round"/>
</svg> 